<?xml version='1.0' encoding='UTF-8' ?> 
<!DOCTYPE svg PUBLIC "-//W3C//DTD SVG 1.0//EN" "http://www.w3.org/TR/2001/REC-SVG-20010904/DTD/svg10.dtd">
<svg width="152"
     height="22"
     viewBox="0 0 152 72"
     xmlns="http://www.w3.org/2000/svg"
     xmlns:xlink="http://www.w3.org/1999/xlink"><path fill="#6d6f70" d=" M 0.0 1.0 H 1.0 M 1.0 1.0 H 37.95 H 114.05 H 151.0 M 151.0 1.0 V 0.0 M 151.0 0.0 H 114.05 H 37.95 H 0.0 V 1.0"/><path fill="#c9cbcc" d=" M 1.0 1.0 H 0.0 M 0.0 1.0 V 5.45 V 16.55 V 22.0 H 1.0 M 1.0 22.0 V 21.0 M 1.0 21.0 V 16.55 V 5.45 V 1.0 M 151.0 0.0 V 1.0 M 151.0 1.0 V 5.45 V 16.55 V 21.0 M 151.0 21.0 V 22.0 M 151.0 22.0 H 152.0 V 16.55 V 5.45 V 0.0 H 151.0"/><path fill="#ffffff" d=" M 151.0 1.0 H 114.05 H 37.95 H 1.0 M 1.0 1.0 V 5.45 V 16.55 V 21.0 M 1.0 21.0 H 37.95 H 114.05 H 151.0 M 151.0 21.0 V 16.55 V 5.45 V 1.0"/><path fill="#d3d5d6" d=" M 1.0 21.0 V 22.0 M 1.0 22.0  H 37.95 H 114.05 H 151.0 M 151.0 22.0 V 21.0 M 151.0 21.0 H 114.05 H 37.95 H 1.0"/></svg>