<?xml version='1.0' encoding='UTF-8' ?> 
<!DOCTYPE svg PUBLIC "-//W3C//DTD SVG 1.0//EN" "http://www.w3.org/TR/2001/REC-SVG-20010904/DTD/svg10.dtd">
<svg width="83"
     height="22"
     viewBox="0 0 83 72"
     xmlns="http://www.w3.org/2000/svg"
     xmlns:xlink="http://www.w3.org/1999/xlink"><path d=" M 4.05 0.0 Q 0.0 0.0 0.05 4.0 V 4.85 V 17.1 V 18.0 Q 0.0 22.0 4.05 22.0 H 4.85 H 76.95 H 78.05 Q 82.05 22.0 82.05 18.0 V 17.1 V 4.85 V 4.0 Q 82.05 0.0 78.05 0.0 H 76.95 H 4.85 H 4.05 M 4.85 1.0 H 76.95 H 78.15 Q 81.05 1.05 81.05 4.0 V 4.85 V 17.1 V 18.0 Q 81.05 20.95 78.15 21.0 H 76.95 H 4.85 H 3.9 Q 1.0 20.95 1.05 18.0 V 17.1 V 4.85 V 4.0 Q 1.0 1.05 3.9 1.0 H 4.85"/><path d=" M 0.0 0.0"/><path fill="#ffffff" d=" M 4.0 1.0 Q 1.0 1.0 1.0 4.0 V 4.85 V 17.1 V 18.0 Q 1.0 21.0 4.0 21.0 H 4.85 H 76.95 H 78.05 Q 81.05 21.0 81.05 18.0 V 17.1 V 4.85 V 4.0 Q 81.05 1.0 78.05 1.0 H 76.95 H 4.85 H 4.0 "/></svg>