<?xml version='1.0' encoding='UTF-8' ?> 
<!DOCTYPE svg PUBLIC "-//W3C//DTD SVG 1.0//EN" "http://www.w3.org/TR/2001/REC-SVG-20010904/DTD/svg10.dtd">
<svg width="82"
     height="22"
     viewBox="0 0 82 72"
     xmlns="http://www.w3.org/2000/svg"
     xmlns:xlink="http://www.w3.org/1999/xlink"><path d=" M 41.0 0.0 H 4.95 H 4.05 Q 0.0 0.0 0.0 4.0 V 4.95 V 16.05 V 18.0 Q 0.0 22.0 4.05 22.0 H 4.95 H 41.0 M 41.0 22.0 V 21.0 M 41.0 21.0 H 4.95 H 3.9 Q 1.0 20.95 1.0 18.0 V 16.05 V 4.95 V 4.0 Q 1.0 1.05 3.9 1.0 H 4.95 H 41.0 M 41.0 1.0 V 0.0"/><path d=" M 41.0 22.0 H 76.05 H 78.0 Q 82.0 22.0 82.0 18.0 V 16.05 V 4.95 V 4.0 Q 82.0 0.0 78.0 0.0 H 76.05 H 41.0 M 41.0 0.0 V 1.0 M 41.0 1.0 H 76.05 H 78.15 Q 81.0 1.05 81.0 4.0 V 4.95 V 16.05 V 18.0 Q 81.0 20.95 78.15 21.0 H 76.05 H 41.0 M 41.0 21.0 V 22.0"/><path d=" M 0.0 0.0 M 0.0 0.0"/><path d=" M 4.95 1.0 H 3.9 Q 1.0 1.05 1.05 4.0 V 4.95 V 16.05 V 18.0 Q 1.0 20.95 3.9 21.0 H 4.95 H 76.05 H 78.15 Q 81.05 20.95 81.05 18.0 V 16.05 V 4.95 V 4.0 Q 81.05 1.05 78.15 1.0 H 76.05 H 4.95"/><path d=" M 41.0 1.0 H 4.95 H 4.0 Q 1.0 1.0 1.0 4.0 V 4.95 V 12.0 H 4.95 H 41.0 M 41.0 12.0 V 4.95 V 1.0 "/><path d=" M 41.0 12.0 H 76.05 H 81.0 V 4.95 V 4.0 Q 80.95 1.0 78.0 1.0 H 76.05 H 41.0 M 41.0 1.0  V 4.95 V 12.0"/></svg>