<?xml version='1.0' encoding='UTF-8' ?> 
<!DOCTYPE svg PUBLIC "-//W3C//DTD SVG 1.0//EN" "http://www.w3.org/TR/2001/REC-SVG-20010904/DTD/svg10.dtd">
<svg width="111"
     height="17"
     viewBox="0 0 111 67"
     xmlns="http://www.w3.org/2000/svg"
     xmlns:xlink="http://www.w3.org/1999/xlink"><path d=" M 67.0 17.0 Q 68.0 17.0 68.0 16.0 V 1.0 Q 68.0 0.0 67.0 0.0 H 57.0 Q 56.0 0.0 56.0 1.0 V 16.0 Q 56.0 17.0 57.0 17.0 H 67.0"/><path d=" M 0.0 0.0 M 0.0 0.0 M 0.0 0.0 M 0.0 0.0 M 0.0 0.0"/><path d=" M 80.0 17.0 Q 81.0 17.0 81.0 16.0 V 1.0 Q 81.0 0.0 80.0 0.0 H 70.0 Q 69.0 0.0 69.0 1.0 V 16.0 Q 69.0 17.0 70.0 17.0 H 80.0"/><path d=" M 97.0 17.0 Q 98.0 17.0 98.0 16.0 V 1.0 Q 98.0 0.0 97.0 0.0 H 87.0 Q 86.0 0.0 86.0 1.0 V 16.0 Q 86.0 17.0 87.0 17.0 H 97.0"/><path d=" M 110.0 17.0 Q 111.0 17.0 111.0 16.0 V 1.0 Q 111.0 0.0 110.0 0.0 H 100.0 Q 99.0 0.0 99.0 1.0 V 16.0 Q 99.0 17.0 100.0 17.0 H 110.0"/><path d=" M 83.65 7.3 Q 84.15 7.3 84.45 6.95 Q 84.8 6.65 84.8 6.15 Q 84.8 5.65 84.45 5.3 Q 84.15 5.0 83.65 5.0 Q 83.15 5.0 82.8 5.3 Q 82.5 5.65 82.5 6.15 Q 82.5 6.65 82.8 6.95 Q 83.15 7.3 83.65 7.3"/><path d=" M 84.45 12.95  Q 84.8 12.65 84.8 12.15 Q 84.8 11.65 84.45 11.3 Q 84.15 11.0 83.65 11.0 Q 83.15 11.0 82.8 11.3 Q 82.5 11.65 82.5 12.15 Q 82.5 12.65 82.8 12.95 Q 83.15 13.3 83.65 13.3 Q 84.15 13.3 84.45 12.95"/></svg>