<?xml version='1.0' encoding='UTF-8' ?> 
<!DOCTYPE svg PUBLIC "-//W3C//DTD SVG 1.0//EN" "http://www.w3.org/TR/2001/REC-SVG-20010904/DTD/svg10.dtd">
<svg width="70"
     height="72"
     viewBox="0 0 70 122"
     xmlns="http://www.w3.org/2000/svg"
     xmlns:xlink="http://www.w3.org/1999/xlink"><path fill="#000000" d=" M 12.5 -56.3  Q 6.25 -63.1 0.1 -72.0 Q -6.2 -63.1 -12.55 -56.3 Q -20.9 -47.3 -32.8 -37.8 L -49.5 -24.1 Q -57.2 -17.25 -61.6 -11.55 Q -66.55 -5.2 -68.55 1.3 Q -70.65 8.1 -69.7 16.0 Q -66.8 29.75 -57.25 36.1 Q -44.9 45.25 -22.05 40.5 Q -16.6 38.75 -12.75 35.8 Q -8.2 32.5 -5.7 27.6 Q -6.1 37.8 -7.8 44.1 Q -8.8 47.75 -12.5 55.95 Q -19.7 67.85 -37.55 71.95 L -37.9 72.0 L 1.6 71.45 L 37.9 72.0 Q 19.8 67.95 12.5 55.95 Q 8.8 47.75 7.8 44.1 Q 6.1 37.8 5.75 27.6 Q 10.35 36.7 22.05 40.5 Q 63.2 48.3 69.75 16.0 Q 70.65 8.1 68.55 1.3 Q 66.6 -5.2 61.6 -11.55 Q 57.2 -17.25 49.5 -24.1 L 32.85 -37.8 Q 20.9 -47.3 12.5 -56.3"/></svg>