<?xml version='1.0' encoding='UTF-8' ?> 
<!DOCTYPE svg PUBLIC "-//W3C//DTD SVG 1.0//EN" "http://www.w3.org/TR/2001/REC-SVG-20010904/DTD/svg10.dtd">
<svg width="16"
     height="52"
     viewBox="0 0 16 102"
     xmlns="http://www.w3.org/2000/svg"
     xmlns:xlink="http://www.w3.org/1999/xlink"><path d=" M 12.0 47.95 V 4.0 Q 12.0 1.05 9.15 1.0 H 1.0 V 51.0 H 9.15 Q 12.0 50.9 12.0 47.95"/><path d=" M 0.0 0.0 M 0.0 0.0"/><path d=" M 13.0 46.35 V 4.0 Q 13.0 0.0 9.0 0.0 H 1.0 V 1.0 H 9.15 Q 12.0 1.1 12.0 4.0 V 46.35 M 12.0 46.35 H 13.0"/><path d=" M 13.0 46.35 H 12.0 M 12.0 46.35 V 48.0 Q 12.0 50.95 9.15 51.0 H 1.0 V 52.0 H 9.0 Q 13.0 52.0 13.0 48.0 V 46.35"/><path fill="#ff0000" d=" M 16.0 52.0  V 48.05 V 4.95 V 0.0 H 13.0 V 4.95 V 48.05 V 52.0 H 16.0"/></svg>